<?xml version="1.0" encoding="iso-8859-1"?>
<!-- Generator: Adobe Illustrator 19.0.0, SVG Export Plug-In . SVG Version: 6.00 Build 0)  -->
<svg version="1.1" id="Layer_1" xmlns="http://www.w3.org/2000/svg" xmlns:xlink="http://www.w3.org/1999/xlink" x="0px" y="0px"
	 viewBox="0 0 502 502" style="enable-background:new 0 0 502 502;" xml:space="preserve">
<g>
	<g>
		<g>
			<path d="M449.284,488.35L260.31,6.35C258.809,2.52,255.114,0,251,0s-7.809,2.52-9.309,6.351l-188.974,482
				c-1.606,4.096-0.346,8.761,3.104,11.491c3.449,2.73,8.278,2.885,11.896,0.381L251,373.375l183.284,126.848
				c1.715,1.188,3.704,1.777,5.689,1.777c2.199,0,4.393-0.724,6.207-2.159C449.631,497.111,450.89,492.446,449.284,488.35z
				 M256.69,352.99c-1.711-1.185-3.701-1.777-5.69-1.777s-3.979,0.593-5.69,1.778L83.311,465.108L251,37.396l167.689,427.711
				L256.69,352.99z"/>
			<path d="M238.292,110.351l-8.625,21.999c-2.017,5.142,0.517,10.944,5.659,12.96c1.199,0.47,2.433,0.692,3.647,0.692
				c3.994,0,7.766-2.409,9.313-6.352l8.625-21.999c2.017-5.142-0.517-10.944-5.659-12.96
				C246.106,102.675,240.308,105.209,238.292,110.351z"/>
			<path d="M226.16,168.691c-5.145-2.018-10.944,0.518-12.96,5.66l-83.509,213c-2.017,5.142,0.517,10.944,5.659,12.96
				c1.199,0.47,2.433,0.692,3.647,0.692c3.994,0,7.768-2.409,9.313-6.352l83.509-213
				C233.836,176.509,231.302,170.707,226.16,168.691z"/>
		</g>
	</g>
</g>
<g>
</g>
<g>
</g>
<g>
</g>
<g>
</g>
<g>
</g>
<g>
</g>
<g>
</g>
<g>
</g>
<g>
</g>
<g>
</g>
<g>
</g>
<g>
</g>
<g>
</g>
<g>
</g>
<g>
</g>
</svg>
